<?xml version="1.0" encoding="UTF-8"?> <svg xmlns="http://www.w3.org/2000/svg" width="568" height="221" viewBox="0 0 568 221"><defs><style> .cls-1 { fill: #f15a29; fill-rule: evenodd; } </style></defs><path id="tiggle" class="cls-1" d="M25.227,54.4a1.272,1.272,0,0,1,.884-0.442h12.6V35.38a1.42,1.42,0,0,1,.885-1.327l25.21-7.076q1.767-.441,1.769,1.327V53.956H93.116a1.173,1.173,0,0,1,1.327,1.327l-1.106,19.46A1.173,1.173,0,0,1,92.01,76.07H66.579v45.554q0,9.071,2.764,14.374t10.725,5.307a49.55,49.55,0,0,0,6.413-.331,23.472,23.472,0,0,0,4.865-1.217q1.767-.44,1.769,1.327l0.663,19.46a1.417,1.417,0,0,1-.885,1.327,37.894,37.894,0,0,1-8.514,2.212,75.471,75.471,0,0,1-12.052.884,37.037,37.037,0,0,1-14.485-2.654,27.585,27.585,0,0,1-10.062-6.855,31.458,31.458,0,0,1-6.855-12.826,64.457,64.457,0,0,1-2.211-17.691V76.07H22.794a1.937,1.937,0,0,1-.885-0.221,0.7,0.7,0,0,1-.442-0.663V57.715a6.3,6.3,0,0,1,.221-2.433ZM117,162.313a1.172,1.172,0,0,1-1.327-1.326V55.283A1.173,1.173,0,0,1,117,53.956h25.873a1.173,1.173,0,0,1,1.327,1.327v105.7a1.172,1.172,0,0,1-1.327,1.326H117Zm25.32-127.707q-4.535,4.758-12.494,4.754-7.743,0-12.163-4.754a15.851,15.851,0,0,1-4.422-11.167,15.66,15.66,0,0,1,4.533-11.167q4.53-4.753,12.273-4.754t12.163,4.644a16.613,16.613,0,0,1,4.644,11.278A15.662,15.662,0,0,1,142.318,34.606ZM248.8,60.811q-0.445.663-2.654,3.206t-5.97,6.524a26.06,26.06,0,0,1,5.86,9.951,35.639,35.639,0,0,1,1.879,11.057,39.861,39.861,0,0,1-3.427,16.917,38.185,38.185,0,0,1-9.067,12.5,38.572,38.572,0,0,1-13.158,7.74,46.839,46.839,0,0,1-15.7,2.653,33.234,33.234,0,0,1-8.293-1.106,75.857,75.857,0,0,1-7.851-2.432,9.311,9.311,0,0,0-1.547,3.759,1.486,1.486,0,0,0,.663,1.327,11.538,11.538,0,0,0,6.523,8.293,109.567,109.567,0,0,0,14.706,5.86q5.525,1.99,11.057,4.2a67.782,67.782,0,0,1,10.062,4.975,42.726,42.726,0,0,1,7.961,6.192,18.487,18.487,0,0,1,4.754,7.85,29.543,29.543,0,0,1,1.769,10.173,21.157,21.157,0,0,1-2.764,10.172,43.774,43.774,0,0,1-7.187,9.62,67.771,67.771,0,0,1-9.84,8.292,58.3,58.3,0,0,1-10.726,5.971,16.663,16.663,0,0,1-4.754,1.216,47.38,47.38,0,0,1-5.639.332,25.984,25.984,0,0,1-4.644-.553q-2.877-.555-5.639-1.106t-6.966-1.658q0.217-3.317.442-5.639t0.332-4.644a17.176,17.176,0,0,1,.553-3.87c0.294-1.182.553-2.211,0.774-3.1a2.8,2.8,0,0,1,.332-1.105,1.279,1.279,0,0,1,1.548-1.327q1.767,0.218,4.091.442c1.548,0.145,2.909.221,4.091,0.221a30.134,30.134,0,0,0,3.427-.221q1.876-.224,3.87-0.663h-0.221q3.535-.886,6.081-1.77a22.962,22.962,0,0,0,4.2-1.879,7.042,7.042,0,0,0,2.543-2.543,9.85,9.85,0,0,0,1.106-3.981,5.715,5.715,0,0,0-1.327-4.533,10.971,10.971,0,0,0-4.091-2.654,35.732,35.732,0,0,0-5.75-1.658,27.956,27.956,0,0,1-6.081-1.991q-4.427-1.772-9.73-4.091A87.311,87.311,0,0,1,184,162.313a54.487,54.487,0,0,1-12.715-10.725,19.521,19.521,0,0,1-4.976-12.936,24.8,24.8,0,0,1,.885-6.413,25.753,25.753,0,0,1,2.875-6.634l-0.221.221q1.1-2.431,1.99-4.534a24.444,24.444,0,0,1,2.211-4.091,36.861,36.861,0,0,1-8.071-12.826,41.779,41.779,0,0,1,.553-28.969,33.994,33.994,0,0,1,8.292-12.163,36.737,36.737,0,0,1,13.6-7.85,58.684,58.684,0,0,1,18.8-2.764,23.611,23.611,0,0,1,15.037,4.865h0.221q1.1-.663,3.1-1.88a11.676,11.676,0,0,0,3.317-2.985,37.008,37.008,0,0,0,6.192-9.067q0.441-1.545,1.769-.663l14.817,8.4c0.587,0.149.736,0.591,0.442,1.327l-3.317,7.74v0.442Zm-25.21,23.22a20.186,20.186,0,0,0-3.427-6.745,19.783,19.783,0,0,0-5.75-4.976,15.8,15.8,0,0,0-8.072-1.99,16.553,16.553,0,0,0-8.071,1.88,15.655,15.655,0,0,0-5.529,4.976,24.083,24.083,0,0,0-3.206,6.966,28.341,28.341,0,0,0-1.106,7.85q0,9.288,5.418,15.037a16.929,16.929,0,0,0,12.716,5.75,17.294,17.294,0,0,0,12.826-5.418q5.307-5.416,5.307-16.033A25.876,25.876,0,0,0,223.586,84.031Zm118.749-23.22q-0.445.663-2.654,3.206t-5.971,6.524a26.049,26.049,0,0,1,5.861,9.951,35.639,35.639,0,0,1,1.879,11.057,39.861,39.861,0,0,1-3.427,16.917,38.185,38.185,0,0,1-9.067,12.5A38.581,38.581,0,0,1,315.8,128.7a46.84,46.84,0,0,1-15.7,2.653,33.233,33.233,0,0,1-8.292-1.106,75.857,75.857,0,0,1-7.851-2.432,9.317,9.317,0,0,0-1.548,3.759,1.487,1.487,0,0,0,.664,1.327,11.538,11.538,0,0,0,6.523,8.293,109.567,109.567,0,0,0,14.706,5.86q5.525,1.99,11.057,4.2a67.782,67.782,0,0,1,10.062,4.975,42.726,42.726,0,0,1,7.961,6.192,18.487,18.487,0,0,1,4.754,7.85,29.566,29.566,0,0,1,1.769,10.173,21.157,21.157,0,0,1-2.764,10.172,43.805,43.805,0,0,1-7.187,9.62,67.727,67.727,0,0,1-9.841,8.292,58.294,58.294,0,0,1-10.725,5.971,16.68,16.68,0,0,1-4.754,1.216,47.38,47.38,0,0,1-5.639.332,25.984,25.984,0,0,1-4.644-.553q-2.877-.555-5.639-1.106t-6.966-1.658q0.217-3.317.442-5.639t0.332-4.644a17.176,17.176,0,0,1,.553-3.87c0.294-1.182.553-2.211,0.774-3.1a2.8,2.8,0,0,1,.332-1.105,1.279,1.279,0,0,1,1.548-1.327q1.767,0.218,4.091.442c1.548,0.145,2.909.221,4.091,0.221a30.134,30.134,0,0,0,3.427-.221q1.876-.224,3.87-0.663h-0.221q3.535-.886,6.081-1.77a22.962,22.962,0,0,0,4.2-1.879,7.042,7.042,0,0,0,2.543-2.543,9.866,9.866,0,0,0,1.106-3.981,5.715,5.715,0,0,0-1.327-4.533,10.971,10.971,0,0,0-4.091-2.654,35.732,35.732,0,0,0-5.75-1.658,27.938,27.938,0,0,1-6.081-1.991q-4.427-1.772-9.73-4.091a87.311,87.311,0,0,1-10.394-5.418,54.487,54.487,0,0,1-12.715-10.725,19.521,19.521,0,0,1-4.976-12.936,24.8,24.8,0,0,1,.885-6.413,25.753,25.753,0,0,1,2.875-6.634l-0.221.221q1.1-2.431,1.99-4.534a24.444,24.444,0,0,1,2.211-4.091,36.861,36.861,0,0,1-8.071-12.826,41.786,41.786,0,0,1,.552-28.969,34.009,34.009,0,0,1,8.293-12.163,36.737,36.737,0,0,1,13.6-7.85,58.68,58.68,0,0,1,18.8-2.764A23.611,23.611,0,0,1,315.8,57.494h0.221q1.1-.663,3.1-1.88a11.676,11.676,0,0,0,3.317-2.985,37.008,37.008,0,0,0,6.192-9.067q0.441-1.545,1.769-.663l14.817,8.4c0.587,0.149.736,0.591,0.442,1.327l-3.317,7.74v0.442Zm-25.21,23.22a20.17,20.17,0,0,0-3.428-6.745,19.779,19.779,0,0,0-5.749-4.976,15.8,15.8,0,0,0-8.072-1.99,16.553,16.553,0,0,0-8.071,1.88,15.655,15.655,0,0,0-5.529,4.976,24.083,24.083,0,0,0-3.206,6.966,28.341,28.341,0,0,0-1.106,7.85q0,9.288,5.418,15.037a16.927,16.927,0,0,0,12.715,5.75,17.291,17.291,0,0,0,12.826-5.418q5.308-5.416,5.308-16.033A25.876,25.876,0,0,0,317.125,84.031ZM415.75,163.2a1.087,1.087,0,0,1-1.327,1.106,68.393,68.393,0,0,1-10.061-.774,71.564,71.564,0,0,1-10.283-2.322,54.143,54.143,0,0,1-9.841-4.091,31.858,31.858,0,0,1-8.293-6.3,42.046,42.046,0,0,1-10.835-19.46q-3.1-11.718-3.1-27.863V5.306a1.172,1.172,0,0,1,1.326-1.327h25.874a1.172,1.172,0,0,1,1.326,1.327V94.866q0,9.287.443,15.812a105.954,105.954,0,0,0,1.216,10.946,27.916,27.916,0,0,0,2.1,7.187,17.1,17.1,0,0,0,3.317,4.755,22.155,22.155,0,0,0,8.845,5.307,45.2,45.2,0,0,0,10.615,2.211,1.281,1.281,0,0,1,1.327,1.548Zm113.884-52.3a23.367,23.367,0,0,1-.663,4.312,1.448,1.448,0,0,1-1.327,1.106h-77.62a25.627,25.627,0,0,0,4.2,10.836,33.119,33.119,0,0,0,8.072,8.292,39.525,39.525,0,0,0,10.725,5.418,38.885,38.885,0,0,0,12.384,1.99,118.722,118.722,0,0,0,13.047-.663c1.029,0,1.548.3,1.548,0.884l2.874,18.8a1.571,1.571,0,0,1-1.1,1.548,51.5,51.5,0,0,1-9.62,1.327q-4.976.217-10.061,0.221a73.461,73.461,0,0,1-24.989-3.98,53,53,0,0,1-18.686-11.168,47.026,47.026,0,0,1-11.61-17.359,61.392,61.392,0,0,1-3.98-22.556,66.421,66.421,0,0,1,3.538-21.34,56.349,56.349,0,0,1,10.614-18.8A51.767,51.767,0,0,1,454.668,56.5q10.615-4.976,24.768-4.976,14.813,0,24.546,5.418a46.818,46.818,0,0,1,15.48,13.379,49.927,49.927,0,0,1,8.071,17.249,70.667,70.667,0,0,1,2.322,17.027Q529.855,108.136,529.634,110.9ZM466.057,73.748a26.7,26.7,0,0,0-8.293,5.86,25.642,25.642,0,0,0-5.086,7.85,38.5,38.5,0,0,0-2.432,8.293h52.63a41.34,41.34,0,0,0-1.326-7.076,24.765,24.765,0,0,0-3.87-8.071,22.592,22.592,0,0,0-7.519-6.524q-4.758-2.654-12.273-2.654A27.763,27.763,0,0,0,466.057,73.748Z"></path></svg> 